<?xml version="1.0" encoding="UTF-8" standalone="no"?>
<!-- Created with Inkscape (http://www.inkscape.org/) -->

<svg
   xmlns:dc="http://purl.org/dc/elements/1.1/"
   xmlns:cc="http://creativecommons.org/ns#"
   xmlns:rdf="http://www.w3.org/1999/02/22-rdf-syntax-ns#"
   xmlns:svg="http://www.w3.org/2000/svg"
   xmlns="http://www.w3.org/2000/svg"
   xmlns:sodipodi="http://sodipodi.sourceforge.net/DTD/sodipodi-0.dtd"
   xmlns:inkscape="http://www.inkscape.org/namespaces/inkscape"
   width="744.09448819"
   height="1052.3622047"
   id="svg2"
   version="1.1"
   inkscape:version="0.48+devel r10359 custom"
   sodipodi:docname="avatar.svg"
   inkscape:export-filename="/Users/jwsm/Desktop/game/avatar.png"
   inkscape:export-xdpi="90"
   inkscape:export-ydpi="90">
  <defs
     id="defs4" />
  <sodipodi:namedview
     id="base"
     pagecolor="#ffffff"
     bordercolor="#666666"
     borderopacity="1.0"
     inkscape:pageopacity="0.0"
     inkscape:pageshadow="2"
     inkscape:zoom="0.70710678"
     inkscape:cx="380.80595"
     inkscape:cy="662.6957"
     inkscape:document-units="px"
     inkscape:current-layer="layer1"
     showgrid="false"
     inkscape:window-width="1024"
     inkscape:window-height="746"
     inkscape:window-x="1680"
     inkscape:window-y="0"
     inkscape:window-maximized="0" />
  <metadata
     id="metadata7">
    <rdf:RDF>
      <cc:Work
         rdf:about="">
        <dc:format>image/svg+xml</dc:format>
        <dc:type
           rdf:resource="http://purl.org/dc/dcmitype/StillImage" />
        <dc:title></dc:title>
      </cc:Work>
    </rdf:RDF>
  </metadata>
  <g
     inkscape:label="Layer 1"
     inkscape:groupmode="layer"
     id="layer1">
    <path
       style="fill:#ececec;stroke:#000000;stroke-width:1px;stroke-linecap:butt;stroke-linejoin:miter;stroke-opacity:1"
       d="M 365.3125 168.0625 L 365.3125 168.65625 L 327.15625 225.21875 C 327.15625 225.21875 300.31521 278.28926 295.71875 312.375 C 291.12228 346.46074 292.84375 445.21875 292.84375 445.21875 L 121.4375 509.5 L 102.84375 599.5 L 321.4375 588.0625 L 312.84375 626.65625 L 365.5 623.78125 L 418.15625 626.65625 L 409.59375 588.0625 L 628.15625 599.5 L 609.59375 509.5 L 438.15625 445.21875 C 438.15625 445.21875 439.90897 346.46074 435.3125 312.375 C 430.71604 278.28926 403.875 225.21875 403.875 225.21875 L 365.71875 168.65625 L 365.71875 168.0625 L 365.5 168.375 L 365.3125 168.0625 z "
       id="path3088" />
    <path
       style="fill:#333333;stroke:#000000;stroke-width:1px;stroke-linecap:butt;stroke-linejoin:miter;stroke-opacity:1"
       d="M 322.85714,253.79075 304.28571,295.21933 360,282.36218 358.57143,238.07647 z"
       id="path3090"
       inkscape:connector-curvature="0" />
    <path
       style="fill:#999999;stroke:none"
       d="m 308.57143,355.21933 4.28571,218.57142 10,0 z"
       id="path3092"
       inkscape:connector-curvature="0" />
    <path
       style="fill:#b3b3b3;stroke:none"
       d="m 118.57143,588.07647 184.28571,-22.85715 5.71429,15.71429 z"
       id="path3094"
       inkscape:connector-curvature="0"
       sodipodi:nodetypes="cccc" />
    <path
       sodipodi:type="arc"
       style="fill:#cccccc;stroke:#000000;stroke-opacity:1"
       id="path3096"
       sodipodi:cx="350"
       sodipodi:cy="614.50507"
       sodipodi:rx="24.285715"
       sodipodi:ry="9.2857141"
       d="m 374.28572,614.50507 a 24.285715,9.2857141 0 1 1 -48.57144,0 24.285715,9.2857141 0 1 1 48.57144,0 z"
       transform="matrix(1,0,0,0.56538461,-10,277.10907)" />
    <path
       inkscape:connector-curvature="0"
       id="path3896"
       d="m 408.171,253.79075 18.57143,41.42858 -55.71429,-12.85715 1.42857,-44.28571 z"
       style="fill:#333333;stroke:#000000;stroke-width:1px;stroke-linecap:butt;stroke-linejoin:miter;stroke-opacity:1" />
    <path
       inkscape:connector-curvature="0"
       id="path3898"
       d="m 422.45671,355.21933 -4.28571,218.57142 -10,0 z"
       style="fill:#999999;stroke:none" />
    <path
       sodipodi:nodetypes="cccc"
       inkscape:connector-curvature="0"
       id="path3900"
       d="M 612.45671,588.07647 428.171,565.21932 l -5.71429,15.71429 z"
       style="fill:#b3b3b3;stroke:none" />
    <path
       transform="matrix(-1,0,0,0.56538461,741.02814,277.10907)"
       d="m 374.28572,614.50507 a 24.285715,9.2857141 0 1 1 -48.57144,0 24.285715,9.2857141 0 1 1 48.57144,0 z"
       sodipodi:ry="9.2857141"
       sodipodi:rx="24.285715"
       sodipodi:cy="614.50507"
       sodipodi:cx="350"
       id="path3902"
       style="fill:#cccccc;stroke:#000000;stroke-opacity:1"
       sodipodi:type="arc" />
    <rect
       style="fill:#999999;fill-opacity:1;stroke:none"
       id="rect3915"
       width="8.485281"
       height="135.7645"
       x="362.03867"
       y="479.60568" />
  </g>
</svg>
