<?xml version="1.0" encoding="UTF-8" standalone="no"?>
<!-- Created with Inkscape (http://www.inkscape.org/) -->

<svg
   xmlns:dc="http://purl.org/dc/elements/1.1/"
   xmlns:cc="http://creativecommons.org/ns#"
   xmlns:rdf="http://www.w3.org/1999/02/22-rdf-syntax-ns#"
   xmlns:svg="http://www.w3.org/2000/svg"
   xmlns="http://www.w3.org/2000/svg"
   xmlns:sodipodi="http://sodipodi.sourceforge.net/DTD/sodipodi-0.dtd"
   xmlns:inkscape="http://www.inkscape.org/namespaces/inkscape"
   width="744.09448819"
   height="1052.3622047"
   id="svg3919"
   version="1.1"
   inkscape:version="0.48+devel r10359 custom"
   sodipodi:docname="baddie.svg"
   inkscape:export-filename="/Users/jwsm/Desktop/game/baddie.png"
   inkscape:export-xdpi="90"
   inkscape:export-ydpi="90">
  <defs
     id="defs3921" />
  <sodipodi:namedview
     id="base"
     pagecolor="#ffffff"
     bordercolor="#666666"
     borderopacity="1.0"
     inkscape:pageopacity="0.0"
     inkscape:pageshadow="2"
     inkscape:zoom="0.35"
     inkscape:cx="375"
     inkscape:cy="405.71429"
     inkscape:document-units="px"
     inkscape:current-layer="layer1"
     showgrid="false"
     inkscape:window-width="899"
     inkscape:window-height="686"
     inkscape:window-x="1700"
     inkscape:window-y="20"
     inkscape:window-maximized="0" />
  <metadata
     id="metadata3924">
    <rdf:RDF>
      <cc:Work
         rdf:about="">
        <dc:format>image/svg+xml</dc:format>
        <dc:type
           rdf:resource="http://purl.org/dc/dcmitype/StillImage" />
        <dc:title></dc:title>
      </cc:Work>
    </rdf:RDF>
  </metadata>
  <g
     inkscape:label="Layer 1"
     inkscape:groupmode="layer"
     id="layer1">
    <path
       style="fill:#ff0000;stroke:#000000;stroke-width:1px;stroke-linecap:butt;stroke-linejoin:miter;stroke-opacity:1"
       d="m 154.28571,458.07647 34.28572,-231.42857 54.28571,200 80,-134.28572 34.28572,100 108.57143,-125.71428 -14.28572,188.57143 105.71429,22.85714 -128.57143,51.42857 97.14286,145.71429 -140,-108.57143 L 317.14286,675.21932 305.71429,520.93361 200,658.07647 168.57143,552.36219 62.857143,532.36218 z"
       id="path3927"
       inkscape:connector-curvature="0"
       sodipodi:nodetypes="ccccccccccccccccc" />
    <path
       sodipodi:type="arc"
       style="fill:#ffffff;fill-opacity:1;stroke:none"
       id="path3929"
       sodipodi:cx="224.28572"
       sodipodi:cy="469.50504"
       sodipodi:rx="15.714286"
       sodipodi:ry="17.142857"
       d="m 240.00001,469.50504 a 15.714286,17.142857 0 1 1 -31.42858,0 15.714286,17.142857 0 1 1 31.42858,0 z"
       transform="matrix(1.5454545,0,0,0.58333332,-105.19481,191.34139)" />
    <path
       transform="matrix(1.5454545,0,0,0.58333332,17.662333,191.34139)"
       d="m 240.00001,469.50504 a 15.714286,17.142857 0 1 1 -31.42858,0 15.714286,17.142857 0 1 1 31.42858,0 z"
       sodipodi:ry="17.142857"
       sodipodi:rx="15.714286"
       sodipodi:cy="469.50504"
       sodipodi:cx="224.28572"
       id="path3931"
       style="fill:#ffffff;fill-opacity:1;stroke:none"
       sodipodi:type="arc" />
  </g>
</svg>
